#!OML:ASF E:\acrobat2\Project_11_07_03\Capture day 1\Session 1\Acrobat.ASF
:FULLY-SPECIFIED
:DEGREES
27
root 10.1035 21.5741 -18.2978 6.14051 1.40946 0.0169443
lowerback -11.0423 -1.5013 -1.33014
upperback -1.30055 -1.81677 -0.296428
thorax 4.86267 -0.918745 0.166517
lowerneck 5.98129 -12.1123 -8.55001
upperneck 2.31521 -16.7883 8.14445
head 1.2652 -8.52179 4.05472
rclavicle 4.95098e-015 2.38542e-015
rhumerus -41.0106 -10.0435 -79.0341
rradius 23.7547
rwrist 6.98791
rhand -3.48481 -26.2692
rfingers 7.12502
rthumb 22.2486 -55.0086
lclavicle 4.95098e-015 2.38542e-015
lhumerus -32.4982 1.35085 83.8268
lradius 25.289
lwrist 9.16641
lhand -8.09166 -15.2074
lfingers 7.12502
lthumb 17.8206 13.9961
rfemur 6.06238 10.1808 19.1089
rtibia -2.88675
rfoot -17.4016 -14.8773
rtoes 22.0356
lfemur 3.56356 -4.21312 -16.0837
ltibia -0.176897
lfoot -7.61585 -0.900216
ltoes 6.11245
28
root 10.1078 21.5777 -18.2987 6.11553 1.29876 -0.0151612
lowerback -10.9963 -1.46126 -1.2742
upperback -1.29158 -1.77128 -0.294353
thorax 4.84415 -0.895315 0.14518
lowerneck 5.88903 -12.1288 -8.48335
upperneck 2.36924 -16.8 8.04272
head 1.28338 -8.52452 3.99984
rclavicle -1.84373e-014 -8.74653e-015
rhumerus -40.9582 -9.75204 -79.2695
rradius 23.9809
rwrist 6.80617
rhand -3.40101 -26.8066
rfingers 7.12502
rthumb 22.3291 -55.5363
lclavicle -1.84373e-014 -8.74653e-015
lhumerus -32.5059 1.22147 83.9205
lradius 25.3009
lwrist 9.18795
lhand -7.73167 -14.5784
lfingers 7.12502
lthumb 18.167 14.5932
rfemur 5.9927 10.0194 19.0709
rtibia -2.73397
rfoot -17.2922 -14.6174
rtoes 21.9646
lfemur 3.63006 -4.2389 -16.0909
ltibia -0.224761
lfoot -7.66164 -0.762024
ltoes 5.97393
29
root 10.112 21.5809 -18.2999 6.10089 1.17294 -0.0583609
lowerback -10.9513 -1.41609 -1.20832
upperback -1.29244 -1.72033 -0.289233
thorax 4.81574 -0.868978 0.122318
lowerneck 5.79965 -12.1486 -8.40726
upperneck 2.43009 -16.8155 7.91951
head 1.30051 -8.52898 3.93623
rclavicle -1.59338e-014 -2.98177e-015
rhumerus -40.8977 -9.53161 -79.4465
rradius 24.1562
rwrist 6.67881
rhand -3.26988 -27.145
rfingers 7.12502
rthumb 22.4549 -55.8596
lclavicle -1.59338e-014 -2.98177e-015
lhumerus -32.5514 1.0672 84.0245
lradius 25.3479
lwrist 9.18367
lhand -7.39882 -14.0347
lfingers 7.12502
lthumb 18.4872 15.1068
rfemur 5.90301 9.87133 19.0436
rtibia -2.57701
rfoot -17.2012 -14.3406
rtoes 22.0297
lfemur 3.68856 -4.274 -16.086
ltibia -0.277838
lfoot -7.72196 -0.606324
ltoes 5.88215
30
root 10.1158 21.5836 -18.301 6.09632 1.06244 -0.0993756
lowerback -10.9123 -1.37779 -1.14875
upperback -1.30132 -1.67765 -0.283741
thorax 4.78264 -0.846809 0.102063
lowerneck 5.7239 -12.1669 -8.34133
upperneck 2.47872 -16.8303 7.80793
head 1.31329 -8.53364 3.87989
rclavicle 9.42985e-015 4.77083e-015
rhumerus -40.8346 -9.32461 -79.6117
rradius 24.3064
rwrist 6.5792
rhand -3.1645 -27.3759
rfingers 7.12502
rthumb 22.5561 -56.0783
lclavicle 9.42985e-015 4.77083e-015
lhumerus -32.6239 0.874757 84.1456
lradius 25.421
lwrist 9.17598
lhand -7.19678 -13.7614
lfingers 7.12502
lthumb 18.6816 15.3616
rfemur 5.81528 9.75476 19.0248
rtibia -2.44532
rfoot -17.134 -14.0996
rtoes 22.1846
lfemur 3.73243 -4.3113 -16.0779
ltibia -0.329406
lfoot -7.77569 -0.466034
ltoes 5.86748
31
root 10.119 21.5858 -18.3016 6.09517 0.989776 -0.130891
lowerback -10.8817 -1.35868 -1.10744
upperback -1.31399 -1.65817 -0.276743
thorax 4.75113 -0.836429 0.0899873
lowerneck 5.66778 -12.1754 -8.29964
upperneck 2.50839 -16.8346 7.72724
head 1.32091 -8.53386 3.84059
rclavicle -2.04997e-016 -5.76476e-015
rhumerus -40.767 -9.11965 -79.7697
rradius 24.4353
rwrist 6.48701
rhand -3.10874 -27.3991
rfingers 7.12502
rthumb 22.6096 -56.0949
lclavicle -2.04997e-016 -5.76476e-015
lhumerus -32.7117 0.658726 84.2802
lradius 25.5061
lwrist 9.18022
lhand -7.16027 -13.7275
lfingers 7.12502
lthumb 18.7167 15.3921
rfemur 5.75368 9.67844 19.016
rtibia -2.36033
rfoot -17.0889 -13.9312
rtoes 22.3783
lfemur 3.76251 -4.34251 -16.0701
ltibia -0.371097
lfoot -7.80554 -0.367821
ltoes 5.93407
32
root 10.1214 21.5875 -18.3015 6.08682 0.962645 -0.151164
lowerback -10.8583 -1.36359 -1.09014
upperback -1.32641 -1.66773 -0.26646
thorax 4.72506 -0.840853 0.0903313
lowerneck 5.64271 -12.1679 -8.29116
upperneck 2.51447 -16.8215 7.68748
head 1.32116 -8.52655 3.82438
rclavicle -2.81405e-015 1.98785e-016
rhumerus -40.6992 -8.90196 -79.9276
rradius 24.5475
rwrist 6.38215
rhand -3.13731 -27.2077
rfingers 7.12502
rthumb 22.5822 -55.9069
lclavicle -2.81405e-015 1.98785e-016
lhumerus -32.8033 0.454213 84.4144
lradius 25.5843
lwrist 9.19101
lhand -7.24721 -13.8362
lfingers 7.12502
lthumb 18.6331 15.2914
rfemur 5.73816 9.64868 19.0213
rtibia -2.32888
rfoot -17.0683 -13.8559
rtoes 22.5629
lfemur 3.78903 -4.36828 -16.0634
ltibia -0.396941
lfoot -7.81229 -0.317172
ltoes 6.01793
33
root 10.123 21.5889 -18.3006 6.07065 0.975 -0.16297
lowerback -10.8462 -1.38526 -1.09067
upperback -1.33467 -1.69718 -0.256409
thorax 4.71033 -0.85544 0.097172
lowerneck 5.6552 -12.1464 -8.30619
upperneck 2.49582 -16.7937 7.68984
head 1.31199 -8.51303 3.83049
rclavicle -9.00743e-015 -3.57812e-015
rhumerus -40.6341 -8.67823 -80.0901
rradius 24.6548
rwrist 6.26238
rhand -3.27858 -26.8959
rfingers 7.12502
rthumb 22.4466 -55.6115
lclavicle -9.00743e-015 -3.57812e-015
lhumerus -32.8839 0.273217 84.5366
lradius 25.6415
lwrist 9.20017
lhand -7.35888 -13.9571
lfingers 7.12502
lthumb 18.5256 15.1807
rfemur 5.76448 9.66082 19.0405
rtibia -2.33951
rfoot -17.0743 -13.8655
rtoes 22.7132
lfemur 3.81501 -4.3848 -16.0548
ltibia -0.407958
lfoot -7.80285 -0.309988
ltoes 6.0071
34
root 10.1243 21.5896 -18.2993 6.05767 1.00552 -0.168402
lowerback -10.8502 -1.4085 -1.09928
upperback -1.33984 -1.72719 -0.252272
thorax 4.70785 -0.870415 0.101867
lowerneck 5.69238 -12.1181 -8.32837
upperneck 2.45931 -16.759 7.73183
head 1.29677 -8.49683 3.8538
rclavicle -2.2444e-014 -5.96354e-015
rhumerus -40.5699 -8.47944 -80.2496
rradius 24.7597
rwrist 6.13899
rhand -3.55487 -26.5294
rfingers 7.12502
rthumb 22.1814 -55.2768
lclavicle -2.2444e-014 -5.96354e-015
lhumerus -32.9415 0.116585 84.6404
lradius 25.6691
lwrist 9.19582
lhand -7.44192 -14.0362
lfingers 7.12502
lthumb 18.4458 15.1092
rfemur 5.801 9.69309 19.0616
rtibia -2.36595
rfoot -17.0966 -13.9197
rtoes 22.8169
lfemur 3.83205 -4.38656 -16.0454
ltibia -0.408663
lfoot -7.78654 -0.329528
ltoes 5.84458
35
root 10.1253 21.5896 -18.2982 6.05466 1.03854 -0.173375
lowerback -10.8676 -1.42564 -1.10764
upperback -1.34701 -1.74864 -0.253876
thorax 4.7105 -0.881099 0.101389
lowerneck 5.74152 -12.0886 -8.35218
upperneck 2.41797 -16.7243 7.80428
head 1.28113 -8.48112 3.88862
rclavicle -2.75876e-014 -2.78299e-015
rhumerus -40.5138 -8.32336 -80.3942
rradius 24.8624
rwrist 6.02282
rhand -3.91794 -26.1411
rfingers 7.12502
rthumb 21.8328 -54.9295
lclavicle -2.75876e-014 -2.78299e-015
lhumerus -32.9824 -0.00605297 84.7198
lradius 25.6677
lwrist 9.17501
lhand -7.47767 -14.0988
lfingers 7.12502
lthumb 18.4114 15.0499
rfemur 5.82647 9.73471 19.0834
rtibia -2.39162
rfoot -17.1265 -13.9925
rtoes 22.8684
lfemur 3.83469 -4.37165 -16.0305
ltibia -0.403021
lfoot -7.76656 -0.361989
ltoes 5.57019
36
root 10.1261 21.5891 -18.2975 6.06312 1.07085 -0.185508
lowerback -10.8955 -1.43795 -1.10992
upperback -1.35895 -1.76421 -0.256429
thorax 4.71369 -0.888743 0.0971787
lowerneck 5.8053 -12.0605 -8.37424
upperneck 2.37428 -16.6927 7.89047
head 1.26365 -8.46733 3.92888
rclavicle 1.13369e-014 4.96962e-015
rhumerus -40.4705 -8.20946 -80.5156
rradius 24.9683
rwrist 5.92522
rhand -4.26488 -25.7901
rfingers 7.12502
rthumb 21.4996 -54.6169
lclavicle 1.13369e-014 4.96962e-015
lhumerus -33.0269 -0.106522 84.7822
lradius 25.6556
lwrist 9.15591
lhand -7.45885 -14.2372
lfingers 7.12502
lthumb 18.4295 14.9098
rfemur 5.83432 9.7828 19.1129
rtibia -2.41027
rfoot -17.1622 -14.0727
rtoes 22.8806
lfemur 3.8208 -4.34074 -16.0011
ltibia -0.39326
lfoot -7.7407 -0.403954
ltoes 5.24003
37
root 10.1268 21.5883 -18.2973 6.07809 1.10092 -0.205081
lowerback -10.9227 -1.44881 -1.10794
upperback -1.37743 -1.77862 -0.25507
thorax 4.7096 -0.895738 0.0949401
lowerneck 5.88399 -12.0396 -8.39097
upperneck 2.3234 -16.6708 7.96865
head 1.24073 -8.45859 3.96672
rclavicle 7.8023e-015 3.97569e-015
rhumerus -40.4399 -8.12492 -80.6102
rradius 25.0765
rwrist 5.84757
rhand -4.54359 -25.5
rfingers 7.12502
rthumb 21.2319 -54.3571
lclavicle 7.8023e-015 3.97569e-015
lhumerus -33.089 -0.194198 84.8414
lradius 25.6445
lwrist 9.14759
lhand -7.38138 -14.2909
lfingers 7.12502
lthumb 18.504 14.849
rfemur 5.8288 9.82713 19.1482
rtibia -2.41731
rfoot -17.2034 -14.1406
rtoes 22.8844
lfemur 3.79816 -4.3077 -15.9613
ltibia -0.383311
lfoot -7.71501 -0.446696
ltoes 4.97721
38
root 10.1275 21.5874 -18.2974 6.09077 1.12582 -0.227099
lowerback -10.9366 -1.46045 -1.10934
upperback -1.40174 -1.79419 -0.247938
thorax 4.69236 -0.903385 0.10089
lowerneck 5.96374 -12.0324 -8.40179
upperneck 2.26882 -16.666 8.022
head 1.21487 -8.45826 3.99488
rclavicle 9.41742e-015 1.59028e-015
rhumerus -40.4212 -8.05138 -80.6832
rradius 25.1848
rwrist 5.7769
rhand -4.69561 -25.3066
rfingers 7.12502
rthumb 21.0859 -54.1802
lclavicle 9.41742e-015 1.59028e-015
lhumerus -33.17 -0.269526 84.9044
lradius 25.6356
lwrist 9.16056
lhand -7.29048 -14.3136
lfingers 7.12502
lthumb 18.5914 14.818
rfemur 5.82348 9.86741 19.1851
rtibia -2.41944
rfoot -17.2431 -14.1929
rtoes 22.9057
lfemur 3.78005 -4.2841 -15.9209
ltibia -0.377713
lfoot -7.69614 -0.485027
ltoes 4.89483
